<svg width="21" height="21" viewBox="0 0 21 21" fill="none" xmlns="http://www.w3.org/2000/svg">
<g clip-path="url(#clip0_440_5672)">
<path d="M10.5 10.5C11.4585 10.5 12.3954 10.2068 13.1924 9.65735C13.9893 9.10794 14.6105 8.32705 14.9773 7.41342C15.3441 6.49979 15.44 5.49445 15.253 4.52455C15.066 3.55465 14.6045 2.66373 13.9267 1.96447C13.249 1.26521 12.3855 0.789002 11.4454 0.596076C10.5054 0.40315 9.53098 0.502166 8.64546 0.880605C7.75994 1.25904 7.00307 1.8999 6.47057 2.72215C5.93807 3.5444 5.65385 4.5111 5.65385 5.5C5.65385 6.82608 6.16442 8.09785 7.07325 9.03553C7.98208 9.97322 9.21472 10.5 10.5 10.5ZM10.5 11.9286C7.49625 11.9286 1.5 13.8429 1.5 17.6429V20.5H19.5V17.6429C19.5 13.8429 13.5037 11.9286 10.5 11.9286Z" fill="#677482"/>
</g>
<defs>
<clipPath id="clip0_440_5672">
<rect width="20" height="20" fill="white" transform="translate(0.5 0.5)"/>
</clipPath>
</defs>
</svg>
